Coordinates
version=1
nRows=34
nColumns=38
inDegrees=no

Units are S.I. units (second, meters, Newtons, ...)
If the header above contains a line with 'inDegrees', this indicates whether rotational values are in degrees (yes) or radians (no).

endheader
time	pelvis_tilt	pelvis_list	pelvis_rotation	pelvis_tx	pelvis_ty	pelvis_tz	hip_flexion_r	hip_adduction_r	hip_rotation_r	knee_angle_r	ankle_angle_r	subtalar_angle_r	mtp_angle_r	hip_flexion_l	hip_adduction_l	hip_rotation_l	knee_angle_l	ankle_angle_l	subtalar_angle_l	mtp_angle_l	lumbar_extension	lumbar_bending	lumbar_rotation	arm_flex_r	arm_add_r	arm_rot_r	elbow_flex_r	pro_sup_r	wrist_flex_r	wrist_dev_r	arm_flex_l	arm_add_l	arm_rot_l	elbow_flex_l	pro_sup_l	wrist_flex_l	wrist_dev_l
0.74	2.72835	1.47244	-1.1524	0.570762	0.0780754	0.945153	0.198211	-0.148265	-0.111245	1.33842	-0.499374	0	0	-0.0704929	0.00781626	-0.258954	0.119914	-0.303261	0	0	-0.131786	0.0195232	-0.149366	-0.24866	-0.275021	-0.216093	0.666647	0.512991	0	0	-0.141411	-0.215331	-0.0534969	0.550272	1.5708	0	0
0.75	2.68662	1.47019	-1.10712	0.570022	0.0873305	0.945809	0.222993	-0.144678	-0.110973	1.33994	-0.489268	0	0	-0.0882273	0.0050366	-0.246975	0.104276	-0.313861	0	0	-0.132986	0.0258584	-0.156267	-0.247856	-0.295027	-0.162467	0.667554	0.463322	0	0	-0.128389	-0.215706	-0.0514804	0.551706	1.5708	0	0
0.76	2.64487	1.46847	-1.06173	0.569293	0.0965188	0.946271	0.247285	-0.140803	-0.111151	1.33664	-0.478769	0	0	-0.102324	0.001027	-0.241959	0.0962212	-0.311039	0	0	-0.133148	0.0325091	-0.159701	-0.24908	-0.297184	-0.162496	0.669572	0.467205	0	0	-0.112077	-0.216863	-0.042923	0.55139	1.5708	0	0
0.77	2.60675	1.46709	-1.01979	0.568564	0.105599	0.946601	0.270753	-0.137176	-0.112114	1.3296	-0.464484	0	0	-0.115805	-0.00259694	-0.237838	0.0884415	-0.308229	0	0	-0.132979	0.0387148	-0.163563	-0.249431	-0.298314	-0.16368	0.671439	0.471447	0	0	-0.0960226	-0.218013	-0.0352142	0.55265	1.5708	0	0
0.78	2.57348	1.46539	-0.9829	0.567942	0.11463	0.946855	0.292955	-0.134016	-0.114629	1.3197	-0.447959	0	0	-0.130058	-0.00595803	-0.233669	0.0798593	-0.305733	0	0	-0.133305	0.0445603	-0.167549	-0.24896	-0.298607	-0.165506	0.673224	0.476173	0	0	-0.0807873	-0.219279	-0.0286246	0.556252	1.5708	0	0
0.79	2.54301	1.46338	-0.949323	0.567464	0.123662	0.947009	0.313912	-0.13102	-0.118577	1.3068	-0.430669	0	0	-0.145308	-0.00914805	-0.228868	0.0698839	-0.303401	0	0	-0.133997	0.050249	-0.171237	-0.247846	-0.298405	-0.167796	0.674836	0.481998	0	0	-0.0666714	-0.220727	-0.0232743	0.562586	1.5708	0	0
0.8	2.51601	1.46106	-0.919452	0.567042	0.132662	0.947065	0.33302	-0.128267	-0.12413	1.29006	-0.41314	0	0	-0.161157	-0.0121384	-0.223485	0.0591399	-0.300937	0	0	-0.135222	0.055867	-0.174912	-0.24638	-0.297766	-0.171088	0.676769	0.488497	0	0	-0.0536653	-0.222362	-0.0191741	0.57181	1.5708	0	0
0.81	2.48818	1.45938	-0.888881	0.566662	0.141712	0.946935	0.351698	-0.126562	-0.132318	1.27022	-0.405584	0	0	-0.174509	-0.0155914	-0.22311	0.0527811	-0.297339	0	0	-0.135257	0.061046	-0.179178	-0.243971	-0.30165	-0.160767	0.677736	0.47824	0	0	-0.0423719	-0.224058	-0.0166369	0.583528	1.5708	0	0
0.82	2.47257	1.45748	-0.870033	0.566259	0.150709	0.946728	0.367658	-0.12666	-0.143793	1.2476	-0.387919	0	0	-0.189806	-0.0178185	-0.219739	0.0433647	-0.295306	0	0	-0.136459	0.0655655	-0.182086	-0.243574	-0.30299	-0.159079	0.681218	0.474172	0	0	-0.0299844	-0.226553	-0.0104008	0.596183	1.5708	0	0
0.83	2.46471	1.45571	-0.858907	0.565909	0.159668	0.946427	0.38165	-0.128125	-0.15849	1.22102	-0.373886	0	0	-0.20467	-0.0197251	-0.218106	0.0359208	-0.292979	0	0	-0.138238	0.0693794	-0.184689	-0.243106	-0.304521	-0.156452	0.685048	0.472438	0	0	-0.0179137	-0.22932	-0.00396846	0.610644	1.5708	0	0
0.84	2.46546	1.45331	-0.855793	0.565552	0.168596	0.946091	0.392765	-0.130628	-0.178148	1.19021	-0.362958	0	0	-0.218761	-0.0221071	-0.219353	0.0335051	-0.275428	0	0	-0.142989	0.0729444	-0.19367	-0.235826	-0.292051	-0.190052	0.685772	0.523095	0	0	-0.0138941	-0.231732	-0.0109483	0.635776	1.5708	0	0
0.85	2.47719	1.44949	-0.863141	0.565131	0.177526	0.945863	0.399862	-0.133766	-0.204083	1.1541	-0.363849	0	0	-0.236733	-0.0236671	-0.215117	0.024551	-0.284464	0	0	-0.146941	0.0766649	-0.189851	-0.241197	-0.305153	-0.158684	0.694003	0.475476	0	0	0.00584303	-0.236878	0.0130029	0.644364	1.5708	0	0
0.86	2.47689	1.44803	-0.858825	0.564864	0.186517	0.945315	0.408093	-0.135744	-0.226577	1.11346	-0.365451	0	0	-0.249343	-0.0256328	-0.214508	0.0220904	-0.279226	0	0	-0.148985	0.0795002	-0.19125	-0.240302	-0.304849	-0.161093	0.69734	0.476104	0	0	0.0181528	-0.240958	0.0234893	0.66055	1.5708	0	0
0.87	2.47239	1.44816	-0.851525	0.56482	0.195528	0.944538	0.416163	-0.136034	-0.242323	1.06849	-0.366586	0	0	-0.25983	-0.0270888	-0.215292	0.021414	-0.273092	0	0	-0.149325	0.0813635	-0.190829	-0.239739	-0.304079	-0.16448	0.70052	0.475665	0	0	0.030798	-0.245141	0.0357275	0.676145	1.5708	0	0
0.88	2.46582	1.44954	-0.843129	0.564934	0.204541	0.943566	0.423603	-0.135184	-0.253576	1.01942	-0.366308	0	0	-0.268841	-0.0278751	-0.216654	0.0216855	-0.266575	0	0	-0.148423	0.0823368	-0.18912	-0.239095	-0.30258	-0.169479	0.703357	0.473827	0	0	0.0437887	-0.249587	0.0498369	0.691184	1.5708	0	0
0.89	2.45915	1.45186	-0.834646	0.565102	0.213528	0.942425	0.429674	-0.134124	-0.262855	0.966725	-0.364017	0	0	-0.276991	-0.0280419	-0.216435	0.0221267	-0.259981	0	0	-0.146858	0.0824243	-0.186738	-0.238869	-0.301346	-0.173595	0.705869	0.473507	0	0	0.057436	-0.255009	0.0672407	0.705705	1.5708	0	0
0.9	2.45154	1.45496	-0.825374	0.565359	0.222539	0.941139	0.434021	-0.132601	-0.271195	0.910811	-0.358886	0	0	-0.284622	-0.0277346	-0.214794	0.0222911	-0.253541	0	0	-0.14451	0.0819776	-0.184901	-0.237536	-0.299935	-0.177777	0.707508	0.473592	0	0	0.07044	-0.261522	0.0875704	0.720571	1.55693	0	0
0.91	2.44053	1.4592	-0.81342	0.565696	0.231645	0.939707	0.43695	-0.130488	-0.278073	0.851213	-0.351747	0	0	-0.291448	-0.0266696	-0.21297	0.0219722	-0.247899	0	0	-0.141086	0.0809406	-0.182662	-0.235702	-0.298483	-0.182159	0.708201	0.474704	0	0	0.0827969	-0.267324	0.105576	0.735087	1.5441	0	0
0.92	2.42352	1.46453	-0.796753	0.566244	0.240902	0.93812	0.438388	-0.127044	-0.281688	0.786264	-0.343772	0	0	-0.297538	-0.0250643	-0.211975	0.0212075	-0.24275	0	0	-0.136379	0.0791938	-0.179107	-0.234727	-0.297037	-0.186804	0.709004	0.47841	0	0	0.0944353	-0.272769	0.122405	0.74945	1.53268	0	0
0.93	2.40007	1.47014	-0.774221	0.567002	0.250314	0.936472	0.43656	-0.121442	-0.281301	0.713642	-0.335951	0	0	-0.303534	-0.0236549	-0.210722	0.019874	-0.23796	0	0	-0.13103	0.0772636	-0.175275	-0.233601	-0.294688	-0.192951	0.709268	0.483806	0	0	0.104854	-0.277942	0.136966	0.763627	1.52349	0	0
0.94	2.37116	1.47529	-0.746153	0.567935	0.259866	0.934824	0.429743	-0.113005	-0.275959	0.631839	-0.328749	0	0	-0.309908	-0.0230676	-0.208892	0.0183667	-0.232818	0	0	-0.125704	0.0756541	-0.171925	-0.231464	-0.290624	-0.202402	0.708281	0.492874	0	0	0.114144	-0.282848	0.149365	0.777498	1.51525	0	0
0.95	2.35142	1.47835	-0.727427	0.56899	0.269465	0.93335	0.4143	-0.100919	-0.263372	0.536986	-0.330217	0	0	-0.31884	-0.0234711	-0.207644	0.0165019	-0.229978	0	0	-0.121942	0.0743552	-0.167011	-0.230071	-0.305457	-0.159678	0.707576	0.43822	0	0	0.125809	-0.288957	0.169149	0.788343	1.49856	0	0
0.96	2.32377	1.482	-0.701043	0.570185	0.279233	0.931804	0.394626	-0.0870272	-0.242521	0.432821	-0.335305	0	0	-0.326189	-0.0241791	-0.20799	0.0165102	-0.226006	0	0	-0.1177	0.0730784	-0.162154	-0.228823	-0.304348	-0.160397	0.706921	0.434776	0	0	0.135473	-0.293456	0.182876	0.799627	1.48912	0	0
0.97	2.29098	1.48548	-0.669396	0.571556	0.28915	0.930234	0.369028	-0.0718855	-0.21001	0.317459	-0.350737	0	0	-0.332645	-0.025784	-0.20942	0.0185183	-0.221263	0	0	-0.113105	0.0717177	-0.15655	-0.229291	-0.303412	-0.159457	0.706783	0.433612	0	0	0.145266	-0.29775	0.197344	0.809512	1.47946	0	0
0.98	2.25703	1.48938	-0.635954	0.573017	0.29926	0.928521	0.341076	-0.0596543	-0.170521	0.202793	-0.371292	0	0	-0.33762	-0.0276764	-0.212052	0.0234891	-0.215309	0	0	-0.107785	0.0696883	-0.151509	-0.230342	-0.301048	-0.161476	0.707043	0.432251	0	0	0.153821	-0.302003	0.211063	0.819246	1.47056	0	0
0.99	2.23117	1.49331	-0.609747	0.574443	0.309555	0.926719	0.316104	-0.0521958	-0.136791	0.106827	-0.388437	0	0	-0.341942	-0.0296764	-0.216384	0.0317215	-0.207984	0	0	-0.102745	0.0669593	-0.147211	-0.232665	-0.297858	-0.165827	0.708712	0.432562	0	0	0.161204	-0.306257	0.224064	0.8292	1.46211	0	0
1	2.21783	1.4963	-0.594696	0.575701	0.320095	0.924984	0.298219	-0.0480491	-0.120324	0.0428622	-0.392897	0	0	-0.346533	-0.0325305	-0.222629	0.0430282	-0.199926	0	0	-0.0988483	0.0646084	-0.145081	-0.235073	-0.294153	-0.171911	0.711086	0.43374	0	0	0.166499	-0.310141	0.234507	0.839532	1.4553	0	0
1.01	2.2027	1.4987	-0.576704	0.576723	0.330835	0.923415	0.293408	-0.0456374	-0.127581	0.0222454	-0.382324	0	0	-0.352083	-0.0356781	-0.225217	0.0517503	-0.20189	0	0	-0.0954547	0.0631123	-0.149179	-0.232869	-0.295604	-0.161941	0.710436	0.42348	0	0	0.164001	-0.311653	0.228188	0.853167	1.46305	0	0
1.02	2.21516	1.49804	-0.585906	0.577633	0.341604	0.922262	0.287829	-0.0418555	-0.134439	0.0161228	-0.384121	0	0	-0.359841	-0.0408966	-0.231252	0.0639924	-0.19941	0	0	-0.0954261	0.0634886	-0.149312	-0.234343	-0.294773	-0.161629	0.711798	0.420956	0	0	0.167439	-0.313215	0.234524	0.860574	1.4602	0	0
1.03	2.23657	1.49502	-0.60367	0.578483	0.352385	0.921456	0.286051	-0.0368799	-0.145123	0.0312475	-0.386842	0	0	-0.367628	-0.0485705	-0.241274	0.0808099	-0.195977	0	0	-0.0979503	0.0659294	-0.150107	-0.235254	-0.29458	-0.160401	0.713284	0.418476	0	0	0.170225	-0.314333	0.240483	0.867163	1.45568	0	0
1.04	2.23675	1.49201	-0.600315	0.579307	0.36327	0.920689	0.295486	-0.0325945	-0.165301	0.0762903	-0.376109	0	0	-0.371945	-0.0578734	-0.255056	0.102763	-0.187944	0	0	-0.0991937	0.0700085	-0.150581	-0.236247	-0.281142	-0.196858	0.714504	0.45676	0	0	0.172237	-0.314391	0.246611	0.871728	1.4491	0	0
1.05	2.21257	1.48966	-0.573236	0.580145	0.374449	0.919915	0.309906	-0.0286711	-0.183074	0.131462	-0.360822	0	0	-0.374314	-0.0675365	-0.268287	0.124342	-0.186268	0	0	-0.0980334	0.0742181	-0.159814	-0.23023	-0.298512	-0.144031	0.711464	0.407469	0	0	0.160662	-0.313216	0.229693	0.883819	1.45528	0	0
1.06	2.20207	1.4852	-0.558884	0.581	0.385881	0.919464	0.316305	-0.0224544	-0.19228	0.172446	-0.357033	0	0	-0.378446	-0.0791482	-0.28105	0.146588	-0.188503	0	0	-0.0983652	0.0800644	-0.166287	-0.227036	-0.29737	-0.144092	0.709127	0.407831	0	0	0.152683	-0.311334	0.22063	0.890586	1.45703	0	0
1.07	2.18647	1.48006	-0.538858	0.581886	0.397562	0.919202	0.319304	-0.0150634	-0.197787	0.202495	-0.359887	0	0	-0.381346	-0.0923537	-0.294415	0.170896	-0.193172	0	0	-0.0981246	0.0868551	-0.174193	-0.223725	-0.296346	-0.143071	0.705707	0.41106	0	0	0.142517	-0.309116	0.210314	0.896568	1.45853	0	0
